<svg xmlns="http://www.w3.org/2000/svg" width="2000" height="600"><path d="M1083,336L923,345L1049,506Z" fill="#f37526" stroke="#f37526" stroke-width="1.51"/><path d="M923,345L905,501L1049,506Z" fill="#ec6f26" stroke="#ec6f26" stroke-width="1.51"/><path d="M1049,506L1194,463L1083,336Z" fill="#eb671a" stroke="#eb671a" stroke-width="1.51"/><path d="M1049,506L1263,575L1194,463Z" fill="#d15712" stroke="#d15712" stroke-width="1.51"/><path d="M909,620L1043,627L1049,506Z" fill="#c15b1f" stroke="#c15b1f" stroke-width="1.51"/><path d="M905,501L909,620L1049,506Z" fill="#cd6324" stroke="#cd6324" stroke-width="1.51"/><path d="M923,345L741,507L905,501Z" fill="#ec7631" stroke="#ec7631" stroke-width="1.51"/><path d="M905,501L778,619L909,620Z" fill="#c3642c" stroke="#c3642c" stroke-width="1.51"/><path d="M944,135L786,292L923,345Z" fill="#fe9e55" stroke="#fe9e55" stroke-width="1.51"/><path d="M1083,336L944,135L923,345Z" fill="#fe9547" stroke="#fe9547" stroke-width="1.51"/><path d="M1194,463L1266,323L1083,336Z" fill="#f36f1a" stroke="#f36f1a" stroke-width="1.51"/><path d="M1079,125L944,135L1083,336Z" fill="#fea15b" stroke="#fea15b" stroke-width="1.51"/><path d="M786,292L741,507L923,345Z" fill="#f7863b" stroke="#f7863b" stroke-width="1.51"/><path d="M1258,187L1079,125L1083,336Z" fill="#fb964e" stroke="#fb964e" stroke-width="1.51"/><path d="M1194,463L1386,493L1266,323Z" fill="#e85c0c" stroke="#e85c0c" stroke-width="1.51"/><path d="M1043,627L1263,575L1049,506Z" fill="#c25416" stroke="#c25416" stroke-width="1.51"/><path d="M741,507L778,619L905,501Z" fill="#cd6c32" stroke="#cd6c32" stroke-width="1.51"/><path d="M946,811L1120,759L1043,627Z" fill="#bb571d" stroke="#bb571d" stroke-width="1.51"/><path d="M1266,323L1258,187L1083,336Z" fill="#f88333" stroke="#f88333" stroke-width="1.51"/><path d="M1043,627L1212,739L1263,575Z" fill="#b84d12" stroke="#b84d12" stroke-width="1.51"/><path d="M946,811L1043,627L909,620Z" fill="#bd5c23" stroke="#bd5c23" stroke-width="1.51"/><path d="M944,135L754,133L786,292Z" fill="#feb272" stroke="#feb272" stroke-width="1.51"/><path d="M786,292L613,452L741,507Z" fill="#f38742" stroke="#f38742" stroke-width="1.51"/><path d="M882,-12L754,133L944,135Z" fill="#ffc28f" stroke="#ffc28f" stroke-width="1.51"/><path d="M1263,575L1386,493L1194,463Z" fill="#cf4f09" stroke="#cf4f09" stroke-width="1.51"/><path d="M1266,323L1408,337L1258,187Z" fill="#f57c2e" stroke="#f57c2e" stroke-width="1.51"/><path d="M1404,657L1386,493L1263,575Z" fill="#b84307" stroke="#b84307" stroke-width="1.51"/><path d="M1120,759L1212,739L1043,627Z" fill="#b95016" stroke="#b95016" stroke-width="1.51"/><path d="M1079,125L1031,20L944,135Z" fill="#ffb67e" stroke="#ffb67e" stroke-width="1.51"/><path d="M1207,-5L1031,20L1079,125Z" fill="#ffb583" stroke="#ffb583" stroke-width="1.51"/><path d="M741,507L608,666L778,619Z" fill="#bf6d3a" stroke="#bf6d3a" stroke-width="1.51"/><path d="M557,333L613,452L786,292Z" fill="#fb9751" stroke="#fb9751" stroke-width="1.51"/><path d="M799,799L946,811L909,620Z" fill="#bd612a" stroke="#bd612a" stroke-width="1.51"/><path d="M1120,759L1377,797L1212,739Z" fill="#b7480c" stroke="#b7480c" stroke-width="1.51"/><path d="M799,799L909,620L778,619Z" fill="#bd652f" stroke="#bd652f" stroke-width="1.51"/><path d="M1386,493L1408,337L1266,323Z" fill="#eb610e" stroke="#eb610e" stroke-width="1.51"/><path d="M1031,20L882,-12L944,135Z" fill="#ffbf8f" stroke="#ffbf8f" stroke-width="1.51"/><path d="M608,666L799,799L778,619Z" fill="#be6b38" stroke="#be6b38" stroke-width="1.51"/><path d="M579,172L557,333L786,292Z" fill="#ffad6b" stroke="#ffad6b" stroke-width="1.51"/><path d="M579,172L786,292L754,133Z" fill="#feb779" stroke="#feb779" stroke-width="1.51"/><path d="M1258,187L1207,-5L1079,125Z" fill="#ffa971" stroke="#ffa971" stroke-width="1.51"/><path d="M950,-169L797,-68L882,-12Z" fill="#ffc99f" stroke="#ffc99f" stroke-width="1.51"/><path d="M1377,16L1207,-5L1258,187Z" fill="#fea874" stroke="#fea874" stroke-width="1.51"/><path d="M1212,739L1404,657L1263,575Z" fill="#b44509" stroke="#b44509" stroke-width="1.51"/><path d="M1386,493L1561,471L1408,337Z" fill="#de4f04" stroke="#de4f04" stroke-width="1.51"/><path d="M450,623L608,666L613,452Z" fill="#c6794b" stroke="#c6794b" stroke-width="1.51"/><path d="M613,452L608,666L741,507Z" fill="#cf7742" stroke="#cf7742" stroke-width="1.51"/><path d="M579,-62L579,172L754,133Z" fill="#ffd0a7" stroke="#ffd0a7" stroke-width="1.51"/><path d="M1408,337L1419,111L1258,187Z" fill="#f48944" stroke="#f48944" stroke-width="1.51"/><path d="M1539,267L1419,111L1408,337Z" fill="#ef7d38" stroke="#ef7d38" stroke-width="1.51"/><path d="M882,-12L797,-68L754,133Z" fill="#ffcba1" stroke="#ffcba1" stroke-width="1.51"/><path d="M950,-169L882,-12L1031,20Z" fill="#ffc497" stroke="#ffc497" stroke-width="1.51"/><path d="M608,666L597,735L799,799Z" fill="#bf6f3f" stroke="#bf6f3f" stroke-width="1.51"/><path d="M450,623L597,735L608,666Z" fill="#c0774b" stroke="#c0774b" stroke-width="1.51"/><path d="M946,811L1377,797L1120,759Z" fill="#b94f14" stroke="#b94f14" stroke-width="1.51"/><path d="M1212,739L1377,797L1404,657Z" fill="#b34208" stroke="#b34208" stroke-width="1.51"/><path d="M1419,111L1377,16L1258,187Z" fill="#fa9e68" stroke="#fa9e68" stroke-width="1.51"/><path d="M1207,-5L1100,-144L1031,20Z" fill="#ffb98b" stroke="#ffb98b" stroke-width="1.51"/><path d="M1536,747L1522,582L1404,657Z" fill="#ab3804" stroke="#ab3804" stroke-width="1.51"/><path d="M1404,657L1522,582L1386,493Z" fill="#b43e05" stroke="#b43e05" stroke-width="1.51"/><path d="M1419,111L1536,-20L1377,16Z" fill="#f9a175" stroke="#f9a175" stroke-width="1.51"/><path d="M1561,471L1539,267L1408,337Z" fill="#e65d10" stroke="#e65d10" stroke-width="1.51"/><path d="M1522,582L1561,471L1386,493Z" fill="#c34003" stroke="#c34003" stroke-width="1.51"/><path d="M1196,-210L1100,-144L1207,-5Z" fill="#ffb687" stroke="#ffb687" stroke-width="1.51"/><path d="M557,333L445,415L613,452Z" fill="#f79658" stroke="#f79658" stroke-width="1.51"/><path d="M448,320L445,415L557,333Z" fill="#fda364" stroke="#fda364" stroke-width="1.51"/><path d="M579,172L448,320L557,333Z" fill="#ffb274" stroke="#ffb274" stroke-width="1.51"/><path d="M1100,-144L950,-169L1031,20Z" fill="#ffbf91" stroke="#ffbf91" stroke-width="1.51"/><path d="M445,415L450,623L613,452Z" fill="#e08854" stroke="#e08854" stroke-width="1.51"/><path d="M797,-68L579,-62L754,133Z" fill="#ffd4af" stroke="#ffd4af" stroke-width="1.51"/><path d="M579,172L412,110L448,320Z" fill="#fec691" stroke="#fec691" stroke-width="1.51"/><path d="M950,-169L790,-152L797,-68Z" fill="#ffcba1" stroke="#ffcba1" stroke-width="1.51"/><path d="M1522,582L1723,500L1561,471Z" fill="#b73c03" stroke="#b73c03" stroke-width="1.51"/><path d="M1377,797L1536,747L1404,657Z" fill="#ae3b05" stroke="#ae3b05" stroke-width="1.51"/><path d="M1703,318L1580,139L1539,267Z" fill="#e17535" stroke="#e17535" stroke-width="1.51"/><path d="M1539,267L1580,139L1419,111Z" fill="#ee894f" stroke="#ee894f" stroke-width="1.51"/><path d="M790,-152L579,-62L797,-68Z" fill="#ffd3ad" stroke="#ffd3ad" stroke-width="1.51"/><path d="M1100,-144L1196,-210L950,-169Z" fill="#ffbb8e" stroke="#ffbb8e" stroke-width="1.51"/><path d="M950,-169L584,-167L790,-152Z" fill="#ffd0a8" stroke="#ffd0a8" stroke-width="1.51"/><path d="M1405,-173L1196,-210L1207,-5Z" fill="#ffaf81" stroke="#ffaf81" stroke-width="1.51"/><path d="M1405,-173L1207,-5L1377,16Z" fill="#ffab7f" stroke="#ffab7f" stroke-width="1.51"/><path d="M464,19L412,110L579,172Z" fill="#fed8b2" stroke="#fed8b2" stroke-width="1.51"/><path d="M448,320L326,299L445,415Z" fill="#ffa96d" stroke="#ffa96d" stroke-width="1.51"/><path d="M445,415L245,431L450,623Z" fill="#e48e5f" stroke="#e48e5f" stroke-width="1.51"/><path d="M579,-62L464,19L579,172Z" fill="#ffdbb9" stroke="#ffdbb9" stroke-width="1.51"/><path d="M1580,139L1536,-20L1419,111Z" fill="#f4996b" stroke="#f4996b" stroke-width="1.51"/><path d="M314,162L326,299L448,320Z" fill="#ffbe87" stroke="#ffbe87" stroke-width="1.51"/><path d="M597,735L416,787L799,799Z" fill="#c07345" stroke="#c07345" stroke-width="1.51"/><path d="M799,799L416,787L946,811Z" fill="#be6c39" stroke="#be6c39" stroke-width="1.51"/><path d="M450,623L416,787L597,735Z" fill="#c07b51" stroke="#c07b51" stroke-width="1.51"/><path d="M302,754L416,787L450,623Z" fill="#c27f59" stroke="#c27f59" stroke-width="1.51"/><path d="M1561,471L1703,318L1539,267Z" fill="#dc5b12" stroke="#dc5b12" stroke-width="1.51"/><path d="M1580,139L1687,109L1536,-20Z" fill="#e9956a" stroke="#e9956a" stroke-width="1.51"/><path d="M1723,500L1703,318L1561,471Z" fill="#cc4604" stroke="#cc4604" stroke-width="1.51"/><path d="M1536,-20L1405,-173L1377,16Z" fill="#fba57c" stroke="#fba57c" stroke-width="1.51"/><path d="M579,-62L419,-155L464,19Z" fill="#ffe3c7" stroke="#ffe3c7" stroke-width="1.51"/><path d="M790,-152L584,-167L579,-62Z" fill="#ffd8b5" stroke="#ffd8b5" stroke-width="1.51"/><path d="M1196,-210L584,-167L950,-169Z" fill="#ffc79b" stroke="#ffc79b" stroke-width="1.51"/><path d="M1714,652L1723,500L1522,582Z" fill="#a13403" stroke="#a13403" stroke-width="1.51"/><path d="M295,-41L412,110L464,19Z" fill="#ffe4ca" stroke="#ffe4ca" stroke-width="1.51"/><path d="M295,-41L314,162L412,110Z" fill="#fee1c5" stroke="#fee1c5" stroke-width="1.51"/><path d="M412,110L314,162L448,320Z" fill="#ffca9a" stroke="#ffca9a" stroke-width="1.51"/><path d="M1536,-20L1538,-182L1405,-173Z" fill="#f8a27a" stroke="#f8a27a" stroke-width="1.51"/><path d="M1703,318L1687,109L1580,139Z" fill="#de7f47" stroke="#de7f47" stroke-width="1.51"/><path d="M1692,-16L1687,109L1904,109Z" fill="#d88f69" stroke="#d88f69" stroke-width="1.51"/><path d="M1536,747L1714,652L1522,582Z" fill="#a23404" stroke="#a23404" stroke-width="1.51"/><path d="M117,319L245,431L326,299Z" fill="#ffaf7b" stroke="#ffaf7b" stroke-width="1.51"/><path d="M326,299L245,431L445,415Z" fill="#fda36b" stroke="#fda36b" stroke-width="1.51"/><path d="M238,666L302,754L450,623Z" fill="#c3815e" stroke="#c3815e" stroke-width="1.51"/><path d="M1704,-133L1538,-182L1536,-20Z" fill="#ee9d78" stroke="#ee9d78" stroke-width="1.51"/><path d="M1405,-173L1538,-182L1196,-210Z" fill="#fda87d" stroke="#fda87d" stroke-width="1.51"/><path d="M1687,109L1692,-16L1536,-20Z" fill="#e79873" stroke="#e79873" stroke-width="1.51"/><path d="M1842,266L1687,109L1703,318Z" fill="#d37136" stroke="#d37136" stroke-width="1.51"/><path d="M245,431L238,666L450,623Z" fill="#cb8660" stroke="#cb8660" stroke-width="1.51"/><path d="M584,-167L419,-155L579,-62Z" fill="#ffe0c3" stroke="#ffe0c3" stroke-width="1.51"/><path d="M1536,747L1733,809L1714,652Z" fill="#9b3104" stroke="#9b3104" stroke-width="1.51"/><path d="M1898,643L1839,448L1723,500Z" fill="#9f3304" stroke="#9f3304" stroke-width="1.51"/><path d="M1377,797L1733,809L1536,747Z" fill="#a63504" stroke="#a63504" stroke-width="1.51"/><path d="M946,811L1733,809L1377,797Z" fill="#b24107" stroke="#b24107" stroke-width="1.51"/><path d="M1723,500L1839,448L1703,318Z" fill="#c34505" stroke="#c34505" stroke-width="1.51"/><path d="M1898,643L1723,500L1714,652Z" fill="#902d04" stroke="#902d04" stroke-width="1.51"/><path d="M419,-155L295,-41L464,19Z" fill="#ffe7d0" stroke="#ffe7d0" stroke-width="1.51"/><path d="M314,162L117,319L326,299Z" fill="#ffc291" stroke="#ffc291" stroke-width="1.51"/><path d="M1839,448L1842,266L1703,318Z" fill="#ca5514" stroke="#ca5514" stroke-width="1.51"/><path d="M1692,-16L1704,-133L1536,-20Z" fill="#e89a77" stroke="#e89a77" stroke-width="1.51"/><path d="M1844,-138L1704,-133L1692,-16Z" fill="#dd9575" stroke="#dd9575" stroke-width="1.51"/><path d="M156,94L117,319L314,162Z" fill="#ffd3ab" stroke="#ffd3ab" stroke-width="1.51"/><path d="M245,431L123,668L238,666Z" fill="#c78767" stroke="#c78767" stroke-width="1.51"/><path d="M295,-41L156,94L314,162Z" fill="#fee6ce" stroke="#fee6ce" stroke-width="1.51"/><path d="M82,414L123,668L245,431Z" fill="#e2946e" stroke="#e2946e" stroke-width="1.51"/><path d="M238,666L75,792L302,754Z" fill="#c48667" stroke="#c48667" stroke-width="1.51"/><path d="M1893,778L1898,643L1714,652Z" fill="#8c2c04" stroke="#8c2c04" stroke-width="1.51"/><path d="M2023,156L1904,109L1842,266Z" fill="#c67747" stroke="#c67747" stroke-width="1.51"/><path d="M-50,415L82,414L117,319Z" fill="#ffad7e" stroke="#ffad7e" stroke-width="1.51"/><path d="M117,319L82,414L245,431Z" fill="#ffa978" stroke="#ffa978" stroke-width="1.51"/><path d="M2023,156L1842,266L2083,338Z" fill="#bf642e" stroke="#bf642e" stroke-width="1.51"/><path d="M1842,266L1904,109L1687,109Z" fill="#d07f4e" stroke="#d07f4e" stroke-width="1.51"/><path d="M1733,809L1893,778L1714,652Z" fill="#902d04" stroke="#902d04" stroke-width="1.51"/><path d="M295,-41L158,-58L156,94Z" fill="#ffefdf" stroke="#ffefdf" stroke-width="1.51"/><path d="M419,-155L237,-171L295,-41Z" fill="#ffead6" stroke="#ffead6" stroke-width="1.51"/><path d="M102,-223L237,-171L419,-155Z" fill="#ffeddc" stroke="#ffeddc" stroke-width="1.51"/><path d="M102,-223L419,-155L584,-167Z" fill="#ffe8d2" stroke="#ffe8d2" stroke-width="1.51"/><path d="M-74,274L-50,415L117,319Z" fill="#ffb98b" stroke="#ffb98b" stroke-width="1.51"/><path d="M237,-171L158,-58L295,-41Z" fill="#ffeedd" stroke="#ffeedd" stroke-width="1.51"/><path d="M1904,109L1885,-54L1692,-16Z" fill="#d59172" stroke="#d59172" stroke-width="1.51"/><path d="M1885,-54L1844,-138L1692,-16Z" fill="#d79374" stroke="#d79374" stroke-width="1.51"/><path d="M1704,-133L1844,-138L1538,-182Z" fill="#e29876" stroke="#e29876" stroke-width="1.51"/><path d="M6,745L75,792L123,668Z" fill="#c58a6e" stroke="#c58a6e" stroke-width="1.51"/><path d="M123,668L75,792L238,666Z" fill="#c5876a" stroke="#c5876a" stroke-width="1.51"/><path d="M302,754L75,792L416,787Z" fill="#c38463" stroke="#c38463" stroke-width="1.51"/><path d="M416,787L75,792L946,811Z" fill="#c17b52" stroke="#c17b52" stroke-width="1.51"/><path d="M1885,-54L2062,-208L1844,-138Z" fill="#cc8e72" stroke="#cc8e72" stroke-width="1.51"/><path d="M1904,109L2057,-66L1885,-54Z" fill="#cb8d72" stroke="#cb8d72" stroke-width="1.51"/><path d="M2083,338L1842,266L1839,448Z" fill="#bf5012" stroke="#bf5012" stroke-width="1.51"/><path d="M2056,478L1839,448L1898,643Z" fill="#983004" stroke="#983004" stroke-width="1.51"/><path d="M2058,601L2056,478L1898,643Z" fill="#852904" stroke="#852904" stroke-width="1.51"/><path d="M-48,616L6,745L123,668Z" fill="#c68b70" stroke="#c68b70" stroke-width="1.51"/><path d="M-48,616L123,668L82,414Z" fill="#cf8f70" stroke="#cf8f70" stroke-width="1.51"/><path d="M-37,152L117,319L156,94Z" fill="#ffd7b4" stroke="#ffd7b4" stroke-width="1.51"/><path d="M1893,778L2021,745L1898,643Z" fill="#842904" stroke="#842904" stroke-width="1.51"/><path d="M2021,745L2058,601L1898,643Z" fill="#7f2704" stroke="#7f2704" stroke-width="1.51"/><path d="M-50,415L-48,616L82,414Z" fill="#ec9c77" stroke="#ec9c77" stroke-width="1.51"/><path d="M-20,-45L-37,152L156,94Z" fill="#ffeddc" stroke="#ffeddc" stroke-width="1.51"/><path d="M-20,-45L156,94L158,-58Z" fill="#fff2e5" stroke="#fff2e5" stroke-width="1.51"/><path d="M2161,418L2083,338L2056,478Z" fill="#b13f07" stroke="#b13f07" stroke-width="1.51"/><path d="M2056,478L2083,338L1839,448Z" fill="#b03d06" stroke="#b03d06" stroke-width="1.51"/><path d="M-37,152L-74,274L117,319Z" fill="#ffcca3" stroke="#ffcca3" stroke-width="1.51"/><path d="M-50,415L-191,418L-48,616Z" fill="#ec9c77" stroke="#ec9c77" stroke-width="1.51"/><path d="M237,-171L102,-223L158,-58Z" fill="#fff0e1" stroke="#fff0e1" stroke-width="1.51"/><path d="M1196,-210L102,-223L584,-167Z" fill="#ffdab8" stroke="#ffdab8" stroke-width="1.51"/><path d="M-166,172L-163,339L-74,274Z" fill="#ffc99f" stroke="#ffc99f" stroke-width="1.51"/><path d="M-14,-193L-20,-45L158,-58Z" fill="#fff4e8" stroke="#fff4e8" stroke-width="1.51"/><path d="M2023,156L2057,-66L1904,109Z" fill="#c48666" stroke="#c48666" stroke-width="1.51"/><path d="M2202,100L2057,-66L2023,156Z" fill="#c48566" stroke="#c48566" stroke-width="1.51"/><path d="M2083,338L2187,302L2023,156Z" fill="#bd612a" stroke="#bd612a" stroke-width="1.51"/><path d="M2058,601L2161,418L2056,478Z" fill="#9b3104" stroke="#9b3104" stroke-width="1.51"/><path d="M2241,627L2161,418L2058,601Z" fill="#8c2c04" stroke="#8c2c04" stroke-width="1.51"/><path d="M-166,172L-74,274L-37,152Z" fill="#ffd7b4" stroke="#ffd7b4" stroke-width="1.51"/><path d="M-74,274L-163,339L-50,415Z" fill="#ffb789" stroke="#ffb789" stroke-width="1.51"/><path d="M2161,418L2187,302L2083,338Z" fill="#b84d12" stroke="#b84d12" stroke-width="1.51"/><path d="M102,-223L-14,-193L158,-58Z" fill="#fff2e6" stroke="#fff2e6" stroke-width="1.51"/><path d="M-209,-19L-166,172L-37,152Z" fill="#ffe9d4" stroke="#ffe9d4" stroke-width="1.51"/><path d="M-209,-19L-37,152L-20,-45Z" fill="#fff2e5" stroke="#fff2e5" stroke-width="1.51"/><path d="M-166,172L-191,418L-163,339Z" fill="#ffbf91" stroke="#ffbf91" stroke-width="1.51"/><path d="M-163,339L-191,418L-50,415Z" fill="#ffad80" stroke="#ffad80" stroke-width="1.51"/><path d="M-48,616L-223,741L6,745Z" fill="#c68b71" stroke="#c68b71" stroke-width="1.51"/><path d="M2021,745L2152,800L2058,601Z" fill="#7f2704" stroke="#7f2704" stroke-width="1.51"/><path d="M2161,418L2241,627L2187,302Z" fill="#ab3704" stroke="#ab3704" stroke-width="1.51"/><path d="M1893,778L2152,800L2021,745Z" fill="#7f2704" stroke="#7f2704" stroke-width="1.51"/><path d="M1733,809L2152,800L1893,778Z" fill="#842904" stroke="#842904" stroke-width="1.51"/><path d="M2057,-66L2062,-208L1885,-54Z" fill="#c68b71" stroke="#c68b71" stroke-width="1.51"/><path d="M1844,-138L2062,-208L1538,-182Z" fill="#d79374" stroke="#d79374" stroke-width="1.51"/><path d="M1538,-182L2062,-208L1196,-210Z" fill="#ed9d78" stroke="#ed9d78" stroke-width="1.51"/><path d="M1196,-210L2062,-208L102,-223Z" fill="#ffb98b" stroke="#ffb98b" stroke-width="1.51"/><path d="M2173,-181L2062,-208L2057,-66Z" fill="#c68b71" stroke="#c68b71" stroke-width="1.51"/><path d="M2241,627L2202,100L2187,302Z" fill="#b94f14" stroke="#b94f14" stroke-width="1.51"/><path d="M2187,302L2202,100L2023,156Z" fill="#bf7244" stroke="#bf7244" stroke-width="1.51"/><path d="M-191,418L-220,584L-48,616Z" fill="#d89374" stroke="#d89374" stroke-width="1.51"/><path d="M-209,-19L-220,584L-191,418Z" fill="#ffbb8d" stroke="#ffbb8d" stroke-width="1.51"/><path d="M2152,800L2241,627L2058,601Z" fill="#7f2704" stroke="#7f2704" stroke-width="1.51"/><path d="M-220,584L-223,741L-48,616Z" fill="#c68b71" stroke="#c68b71" stroke-width="1.51"/><path d="M6,745L-223,741L75,792Z" fill="#c68b71" stroke="#c68b71" stroke-width="1.51"/><path d="M2202,100L2216,-23L2057,-66Z" fill="#c68b71" stroke="#c68b71" stroke-width="1.51"/><path d="M2241,627L2216,-23L2202,100Z" fill="#bd6833" stroke="#bd6833" stroke-width="1.51"/><path d="M-166,172L-209,-19L-191,418Z" fill="#ffd9b7" stroke="#ffd9b7" stroke-width="1.51"/><path d="M-220,584L-235,-217L-223,741Z" fill="#ffb183" stroke="#ffb183" stroke-width="1.51"/><path d="M-14,-193L-209,-19L-20,-45Z" fill="#fff5eb" stroke="#fff5eb" stroke-width="1.51"/><path d="M2216,-23L2173,-181L2057,-66Z" fill="#c68b71" stroke="#c68b71" stroke-width="1.51"/><path d="M-209,-19L-235,-217L-220,584Z" fill="#ffe7d0" stroke="#ffe7d0" stroke-width="1.51"/><path d="M-14,-193L-235,-217L-209,-19Z" fill="#fff5eb" stroke="#fff5eb" stroke-width="1.51"/><path d="M102,-223L-235,-217L-14,-193Z" fill="#fff5eb" stroke="#fff5eb" stroke-width="1.51"/></svg>